<svg width="172" height="31" viewBox="0 0 172 31" fill="none" xmlns="http://www.w3.org/2000/svg">
<g clip-path="url(#clip0)">
<path d="M9.55276 1.80065e-05C9.68731 0.00949875 9.82236 0.00949875 9.95691 1.80065e-05H14.3659C15.9747 -0.00744178 17.5416 0.513316 18.8259 1.48235C20.1102 2.45138 21.041 3.81514 21.4753 5.36426C21.8279 6.48455 21.9068 7.67304 21.7054 8.83011C21.5041 9.98718 21.0283 11.0791 20.318 12.0144C19.6047 13.0048 18.6043 13.7519 17.4522 14.1546C17.3052 14.2006 17.1674 14.274 16.9378 14.3751L17.8104 14.7058C18.9719 15.1187 19.9971 15.8439 20.7733 16.8016C21.5495 17.7593 22.0467 18.9124 22.2102 20.1343C22.5659 21.8683 22.37 23.6702 21.6499 25.2873C21.1568 26.3526 20.4129 27.2826 19.4819 27.9976C18.5509 28.7127 17.4605 29.1915 16.304 29.3931C14.8798 29.6469 13.4323 29.7454 11.9869 29.687C8.08616 29.687 4.18545 29.687 0.284746 29.687H0V0.0735007H0.385784L5.82351 1.80065e-05C5.97033 0.00911737 6.11758 0.00911737 6.2644 1.80065e-05H9.55276ZM6.35626 20.713C6.35626 21.7142 6.35626 22.7154 6.35626 23.7166C6.35626 24.0564 6.4573 24.185 6.79715 24.185C8.71689 24.185 10.6274 24.185 12.538 24.185C13.4319 24.204 14.2982 23.8746 14.9537 23.2665C15.4411 22.8055 15.778 22.2083 15.9206 21.5528C16.0632 20.8973 16.0047 20.2141 15.7529 19.5924C15.5704 18.9686 15.1888 18.4218 14.6663 18.0353C14.1439 17.6489 13.5093 17.4441 12.8595 17.4522C10.7928 17.3328 8.71689 17.3511 6.641 17.3052C6.40218 17.3052 6.3287 17.3879 6.3287 17.6267C6.36544 18.6554 6.35626 19.6842 6.35626 20.713ZM6.35626 11.794H6.63182C8.38622 11.794 10.1406 11.794 11.895 11.794C12.3843 11.7795 12.8693 11.6992 13.3371 11.5552C13.923 11.3996 14.4412 11.0552 14.8115 10.5753C15.1818 10.0954 15.3835 9.50677 15.3854 8.90061C15.4441 8.278 15.3088 7.65249 14.998 7.10982C14.6872 6.56715 14.2161 6.1339 13.6494 5.86945C13.0106 5.60215 12.3204 5.4798 11.6286 5.51122H6.80634C6.3287 5.51122 6.31952 5.51122 6.31952 6.00723V11.5184C6.31952 11.6195 6.33789 11.693 6.33789 11.794H6.35626Z" fill="#455D7A"/>
<path d="M171.031 19.6382C170.939 20.2077 170.875 20.7864 170.755 21.3467C170.325 23.4876 169.224 25.4359 167.613 26.9091C166.001 28.3822 163.961 29.3038 161.791 29.54C160.055 29.7329 158.291 29.7146 156.537 29.7513C154.782 29.788 152.973 29.7513 151.2 29.7513C151.007 29.7513 150.814 29.7513 150.584 29.6962V8.83627C150.584 8.22085 150.658 8.13819 151.255 8.14737C154.185 8.14737 157.115 8.14737 160.045 8.23004C162.024 8.24496 163.973 8.71646 165.74 9.60784C167.646 10.627 169.147 12.2668 169.993 14.2556C170.54 15.4494 170.869 16.7308 170.967 18.04C170.983 18.1391 171.004 18.2372 171.031 18.3339V19.6382ZM155.985 25.1494C157.473 25.1035 158.925 25.1494 160.358 25.0025C161.604 24.9142 162.774 24.3716 163.646 23.4777C164.467 22.6491 165.052 21.6164 165.341 20.4862C165.63 19.3559 165.613 18.1691 165.29 17.048C165.057 15.9469 164.481 14.9481 163.644 14.1954C162.807 13.4428 161.753 12.975 160.633 12.8595C159.43 12.7217 158.199 12.786 156.959 12.7584H155.967L155.985 25.1494Z" fill="#455D7A"/>
<path d="M85.8462 0.0826416H106.421V0.468426C106.421 1.94727 106.421 3.42611 106.421 4.91413C106.421 5.36421 106.293 5.50199 105.852 5.53873H105.374H92.5147H92.1381C92.1381 5.6857 92.1381 5.80511 92.1381 5.92452C92.1381 7.76159 92.1381 9.59866 92.1381 11.4357C92.1381 11.7572 92.2392 11.8307 92.5423 11.8307H101.847C102.766 11.8307 102.867 11.9134 102.867 12.8319C102.867 14.2005 102.867 15.5875 102.867 16.9377V17.3327H92.129V29.6686H85.8462V0.0826416Z" fill="#455D7A"/>
<path d="M110.096 20.7773C110.27 22.0971 110.924 23.3066 111.933 24.1758C113.393 25.3239 115.25 25.8458 117.095 25.6271C118.781 25.4315 120.386 24.7982 121.752 23.79C121.981 23.6339 122.101 23.6155 122.266 23.8635C123.029 25.0117 123.809 26.1507 124.599 27.3172C123.631 28.0314 122.594 28.6469 121.504 29.1543C120.115 29.7027 118.655 30.0491 117.168 30.183C115.562 30.4045 113.927 30.2964 112.363 29.8652C110.8 29.4341 109.341 28.689 108.075 27.6754C107.019 26.8259 106.144 25.7724 105.503 24.5779C104.863 23.3833 104.469 22.072 104.346 20.7221C104.058 18.5481 104.323 16.3366 105.117 14.2924C106.006 11.9628 107.75 10.0605 109.995 8.9741C111.968 7.93308 114.202 7.48642 116.424 7.68815C118.443 7.80925 120.377 8.54583 121.965 9.79879C123.553 11.0517 124.719 12.761 125.306 14.6966C125.784 16.0649 126.042 17.5003 126.069 18.9494C126.069 19.5464 126.069 20.1527 126.069 20.7864L110.096 20.7773ZM120.622 16.8643C120.646 16.2784 120.54 15.6944 120.311 15.1544C120.082 14.6144 119.737 14.1318 119.299 13.7413C118.738 13.2347 118.083 12.844 117.37 12.5918C116.658 12.3395 115.902 12.2307 115.147 12.2716C114.231 12.2652 113.33 12.5014 112.534 12.9564C111.739 13.4114 111.078 14.0688 110.619 14.8619C110.237 15.4546 110.086 16.1676 110.197 16.8643H120.622Z" fill="#455D7A"/>
<path d="M149.087 20.768H133.187C133.231 21.5071 133.465 22.2224 133.867 22.8439C134.347 23.6274 135.006 24.2857 135.79 24.7648C136.574 25.2438 137.461 25.5299 138.377 25.5995C139.54 25.7297 140.718 25.6287 141.842 25.3024C142.965 24.9761 144.014 24.4309 144.926 23.6982L145.082 23.5971L147.636 27.3356C146.965 27.7765 146.323 28.2541 145.634 28.6215C144.132 29.4201 142.492 29.928 140.802 30.1187C139.938 30.2681 139.061 30.3266 138.184 30.2932C133.215 29.8891 128.999 27.5376 127.649 22.0724C127.219 20.5636 127.102 18.9831 127.304 17.4274C127.506 15.8718 128.024 14.3737 128.824 13.0248C129.631 11.6321 130.743 10.4401 132.076 9.53814C133.409 8.63618 134.929 8.04766 136.522 7.81671C139.172 7.3146 141.915 7.82248 144.21 9.24043C146.391 10.6438 147.962 12.8187 148.61 15.3303C149.078 17.0587 149.261 18.852 149.152 20.6394C149.136 20.6848 149.114 20.728 149.087 20.768V20.768ZM143.631 16.8826C143.713 16.0151 143.478 15.1473 142.97 14.4393C142.476 13.8272 141.864 13.3211 141.17 12.9515C140.476 12.5819 139.715 12.3564 138.931 12.2886C138.148 12.2209 137.359 12.3122 136.612 12.557C135.865 12.8019 135.175 13.1954 134.584 13.7137C134.185 14.05 133.856 14.4616 133.617 14.9249C133.377 15.3883 133.231 15.8944 133.187 16.4142C133.187 16.8735 133.187 16.8826 133.61 16.8826H143.604H143.631Z" fill="#455D7A"/>
<path d="M23.588 8.26678H29.2278V8.64338C29.2278 12.6206 29.2278 16.5979 29.2278 20.5843C29.226 21.2433 29.3031 21.9001 29.4574 22.5408C29.5714 23.0417 29.8034 23.5081 30.1341 23.9011C30.4649 24.2941 30.8847 24.6025 31.3588 24.8004C32.1808 25.2449 33.1082 25.4575 34.0418 25.4155C34.9754 25.3734 35.88 25.0782 36.6587 24.5616C37.144 24.2453 37.5497 23.8214 37.8445 23.3227C38.1392 22.8241 38.3149 22.2642 38.358 21.6866C38.4023 21.2563 38.4238 20.824 38.4223 20.3914V8.26678H43.9794C43.9794 8.38619 43.9794 8.5056 43.9794 8.62501V21.2089C44.0361 23.0902 43.5134 24.9435 42.4822 26.5181C41.2036 28.339 39.2544 29.5779 37.0628 29.9626C35.5576 30.3056 34.0075 30.4079 32.4702 30.2657C29.7697 29.9901 27.2437 29.2277 25.4158 27.0049C24.3944 25.75 23.7736 24.2171 23.6339 22.6051C23.5788 22.0172 23.5696 21.4202 23.5696 20.8323C23.5696 16.8092 23.5696 12.7768 23.5696 8.75361L23.588 8.26678Z" fill="#455D7A"/>
<path d="M55.4611 13.1167H46.2207C45.9359 13.1167 45.8349 13.0524 45.8349 12.7493C45.8349 11.3806 45.8349 9.99366 45.8349 8.64342C45.8349 8.54238 45.8349 8.44134 45.8349 8.31274H63.14C63.14 9.37824 63.14 10.4529 63.14 11.5276C63.0668 12.178 62.7792 12.7855 62.3226 13.2545L55.6907 21.6131L53.6424 24.2309L53.3026 24.6902H62.8553C63.1952 24.6902 63.2778 24.7821 63.2686 25.1127C63.2686 26.4997 63.2686 27.8683 63.2686 29.2829C63.2686 29.5584 63.1952 29.6503 62.9104 29.6503H46.1472H45.8257C45.8257 29.5309 45.8257 29.4207 45.8257 29.3104C45.8257 28.1439 45.8257 26.9774 45.8257 25.82C45.8379 25.5751 45.9208 25.339 46.0645 25.1403C49.0344 21.3559 52.0013 17.5685 54.9651 13.778C55.1121 13.6127 55.259 13.3922 55.4611 13.1167Z" fill="#455D7A"/>
<path d="M72.3805 24.8004H81.6485C82.3098 24.8004 82.4201 24.9014 82.4201 25.572C82.4201 26.8212 82.4201 28.0796 82.4201 29.3288V29.687H64.9679C64.9679 29.586 64.9679 29.4757 64.9679 29.3655C64.9679 28.1714 64.9679 26.9773 64.9679 25.7741C64.9769 25.5512 65.0538 25.3365 65.1884 25.1586C68.0358 21.5212 70.8925 17.8838 73.7583 14.2464L74.6033 13.1442H65.2619C64.9679 13.1442 64.8669 13.0799 64.8669 12.7676C64.8669 11.4817 64.8669 10.1957 64.8669 8.90976C64.8669 8.72606 64.8669 8.54235 64.8669 8.34027H82.1353C82.1409 8.42284 82.1409 8.5057 82.1353 8.58828C82.1353 9.6997 82.1353 10.8203 82.1353 11.9409C82.1301 12.1871 82.0464 12.4252 81.8965 12.6206C78.9266 16.454 75.9352 20.2567 72.9224 24.0288C72.7479 24.2493 72.5642 24.4881 72.3805 24.8004Z" fill="#455D7A"/>
</g>
<defs>
<clipPath id="clip0">
<rect width="171.031" height="30.33" fill="white"/>
</clipPath>
</defs>
</svg>
