<svg width="121" height="31" viewBox="0 0 121 31" fill="none" xmlns="http://www.w3.org/2000/svg">
<g clip-path="url(#clip0)">
<path d="M59.2599 2.42C59.5999 2.02 59.7699 1.63 60.0099 1.58C62.8699 1 65.7499 0.53 68.6799 0V9.73C68.9699 9.63 69.1899 9.56 69.4099 9.46C75.0199 7.08 80.3099 9.64 81.6099 15.6C82.6099 20.1 81.8499 24.29 78.2799 27.6C76.5587 29.1147 74.3871 30.0212 72.0999 30.18C69.0206 30.4028 65.9253 30.1567 62.9199 29.45C62.3199 29.34 62.4199 28.95 62.4199 28.55C62.4199 21.4633 62.4466 14.37 62.4999 7.27C62.4984 6.64842 62.4617 6.02742 62.3899 5.41C62.1999 3.38 61.6299 2.78 59.2599 2.42ZM68.6299 19.84H68.7299C68.7299 22.51 68.7299 25.18 68.7299 27.84C68.7299 28.48 68.9699 28.68 69.5999 28.74C70.4567 28.8388 71.3229 28.6649 72.0751 28.2429C72.8274 27.821 73.4274 27.1726 73.7899 26.39C74.7046 24.7319 75.2376 22.8904 75.3499 21C75.5999 18.25 75.5499 15.52 74.1299 13C73.7175 12.1526 73.0123 11.4832 72.1446 11.1156C71.277 10.7479 70.3055 10.7069 69.4099 11C69.2912 11.011 69.176 11.046 69.0713 11.1028C68.9666 11.1597 68.8745 11.2372 68.8006 11.3307C68.7268 11.4242 68.6726 11.5318 68.6416 11.6468C68.6105 11.7619 68.6031 11.882 68.6199 12C68.6499 14.62 68.6299 17.23 68.6299 19.84V19.84Z" fill="#455D7A"/>
<path d="M0.0699436 0.580017H24.5599C24.5599 2.30002 24.5599 3.97002 24.5599 5.64002C24.5125 6.30584 24.5125 6.97419 24.5599 7.64002C24.7099 8.72002 24.2099 9.10002 23.2199 9.10002C22.7999 8.17002 22.4199 7.22002 21.9499 6.32002C21.4149 5.16702 20.5471 4.20047 19.4583 3.54466C18.3695 2.88886 17.1093 2.5738 15.8399 2.64002C14.3399 2.64002 12.8399 2.64002 11.1799 2.64002L10.8799 14.49C12.3199 14.41 13.6399 14.49 14.8799 14.26C16.5299 13.99 17.1699 12.65 17.5099 11.2C17.6999 10.38 18.0399 10.08 18.8999 10.4V20.1H17.8799C17.6399 19.42 17.4499 18.74 17.1699 18.1C16.9554 17.5258 16.5701 17.0311 16.066 16.6825C15.5618 16.3338 14.9629 16.148 14.3499 16.15C13.2699 16.15 12.1799 16.15 11.0399 16.15C11.0044 16.2703 10.9843 16.3947 10.9799 16.52C11.0866 19.2467 11.1999 21.9834 11.3199 24.73C11.3406 25.0375 11.3909 25.3422 11.4699 25.64C11.9099 27.69 12.3799 28.13 14.8699 28.51C15.6999 28.64 15.8699 28.99 15.5999 29.73H0.119944C-0.170056 28.96 0.0599436 28.63 0.879944 28.47C3.22994 28.02 3.93994 27.41 4.06994 24.97C4.30994 20.41 4.35994 15.83 4.40994 11.26C4.41495 9.29858 4.30476 7.33854 4.07994 5.39002C3.78994 2.82002 3.07994 2.19002 0.479944 1.86002C0.341532 1.84324 0.204509 1.81651 0.0699436 1.78002V0.580017Z" fill="#455D7A"/>
<path d="M42.8 19.57C42.8572 21.4118 42.4245 23.2359 41.546 24.8557C40.6676 26.4756 39.3749 27.8332 37.8 28.79C33.22 31.58 26.55 30.43 23.6 26.44C20.65 22.45 20.24 13.55 26.51 9.82C30.79 7.27 37.1 8 40.19 11.47C42.16 13.68 42.76 16.38 42.8 19.57ZM27.92 18.88H28.17C28.17 19.88 28.1 20.82 28.17 21.77C28.2268 23.7073 28.7628 25.6004 29.73 27.28C31.16 29.5 33.73 29.42 34.97 27.12C35.2436 26.6351 35.4553 26.1177 35.6 25.58C36.3648 22.4444 36.5008 19.1884 36 16C35.7389 14.4461 35.275 12.9331 34.62 11.5C34.3973 10.9413 34.0012 10.4689 33.49 10.1521C32.9788 9.83526 32.3794 9.69082 31.78 9.74C31.1693 9.78763 30.5868 10.0169 30.1074 10.3982C29.628 10.7796 29.2737 11.2956 29.09 11.88C28.881 12.2967 28.7329 12.7412 28.65 13.2C28.4 15.07 28.17 17 27.92 18.88V18.88Z" fill="#455D7A"/>
<path d="M102.29 25.74L102.81 26.44C101.717 27.7741 100.312 28.818 98.7198 29.4791C97.1272 30.1402 95.3961 30.3981 93.6799 30.23C87.3599 29.89 83.2399 24.8 83.8599 18.17C84.4799 11.54 89.8599 7.33999 96.4299 8.50999C99.8299 9.10999 102.23 11.75 102.86 15.61C103 16.46 103.04 17.32 103.14 18.3H90.1399C90.1399 21.38 90.6499 24.21 93.2799 25.96C96.2399 27.91 99.3099 27.66 102.29 25.74ZM90.1799 16.67H96.6099C96.7882 14.8468 96.5488 13.0069 95.9099 11.29C94.9799 9.28999 93.2099 9.12999 91.9099 10.89C90.7876 12.6094 90.1868 14.6168 90.1799 16.67V16.67Z" fill="#455D7A"/>
<path d="M105.39 22.73C105.9 23.73 106.39 24.73 106.92 25.61C107.371 26.4362 108.036 27.1258 108.845 27.6062C109.655 28.0866 110.579 28.3401 111.52 28.34C112.271 28.3938 113.017 28.1917 113.638 27.7668C114.259 27.3419 114.718 26.7191 114.94 26C115.36 24.51 114.8 23.28 113.19 22.4C112.32 21.93 111.37 21.6 110.46 21.21C109.71 20.89 108.95 20.61 108.22 20.27C103.69 18.11 104.04 12.27 107.8 9.81C110.019 8.50107 112.627 8.01268 115.17 8.43C116.432 8.60962 117.683 8.85326 118.92 9.16C119.036 9.17328 119.149 9.21015 119.25 9.26834C119.352 9.32654 119.44 9.40483 119.51 9.49845C119.581 9.59206 119.631 9.69902 119.658 9.81277C119.686 9.92652 119.69 10.0447 119.67 10.16C119.67 11.5 119.67 12.84 119.75 14.16C119.75 14.81 119.52 15.07 118.89 15.05C118.42 14.12 118.01 13.15 117.48 12.25C117.094 11.5241 116.518 10.917 115.813 10.4941C115.109 10.0712 114.302 9.84855 113.48 9.85C112.869 9.81285 112.263 9.97381 111.751 10.3089C111.24 10.6441 110.85 11.1355 110.64 11.71C110.362 12.2789 110.297 12.9284 110.457 13.5411C110.616 14.1537 110.99 14.689 111.51 15.05C112.801 15.8185 114.137 16.5097 115.51 17.12C116.23 17.48 117.01 17.74 117.72 18.12C118.576 18.5855 119.308 19.2493 119.854 20.0557C120.401 20.8621 120.747 21.7878 120.862 22.7552C120.978 23.7226 120.86 24.7036 120.518 25.6161C120.177 26.5286 119.622 27.346 118.9 28C117.515 29.2489 115.758 30.0079 113.9 30.16C111.041 30.4519 108.152 30.1766 105.4 29.35C105.265 29.332 105.135 29.2867 105.018 29.2167C104.901 29.1468 104.8 29.0537 104.721 28.9432C104.641 28.8328 104.585 28.7072 104.555 28.5742C104.526 28.4413 104.524 28.3037 104.55 28.17C104.55 26.67 104.55 25.17 104.47 23.69C104.48 23 104.74 22.69 105.39 22.73Z" fill="#455D7A"/>
<path d="M55.7999 28.67V29.67H42.9999V28.73C43.0755 28.6732 43.16 28.6293 43.2499 28.6C45.0099 28.54 45.8699 27.77 45.8999 25.5C45.8999 21.89 45.8999 18.28 45.8999 14.67C45.8981 14.1714 45.8614 13.6735 45.7899 13.18C45.5899 11.81 45.0899 11.34 43.7199 11.06C43.4236 10.9373 43.1524 10.761 42.9199 10.54C43.1799 10.35 43.4299 10.06 43.7099 10C46.3766 9.46003 49.0433 8.9367 51.7099 8.43003C51.8631 8.41943 52.0168 8.41943 52.1699 8.43003V13C52.9216 11.3447 54.1509 9.95171 55.6999 9.00003C56.4841 8.55459 57.3659 8.30884 58.2674 8.28443C59.169 8.26001 60.0627 8.45768 60.8699 8.86003L58.6699 14.5C58.0913 14.215 57.4891 13.9808 56.8699 13.8C56.083 13.622 55.2761 13.548 54.4699 13.58C52.6199 13.69 52.0599 14.26 52.0599 16.07C52.0599 19.25 52.0599 22.42 52.2399 25.59C52.3499 28 52.7799 28.35 55.2399 28.59C55.4279 28.6062 55.6149 28.6329 55.7999 28.67V28.67Z" fill="#455D7A"/>
</g>
<defs>
<clipPath id="clip0">
<rect width="120.89" height="30.33" fill="white"/>
</clipPath>
</defs>
</svg>
