<svg width="166" height="30" viewBox="0 0 166 30" fill="none" xmlns="http://www.w3.org/2000/svg">
<g clip-path="url(#clip0)">
<path d="M24.4976 10.2103C23.7824 12.5048 23.0671 14.7992 22.2923 17.0363C21.1002 20.7648 19.8484 24.4933 18.6563 28.2218C18.4775 28.738 18.1795 28.9675 17.5835 28.9675C16.3318 28.9675 15.1396 28.9101 13.8879 28.9675C13.0535 29.0249 12.6362 28.6807 12.4574 27.935C10.8481 22.1989 9.23875 16.5201 7.62942 10.7266C7.56981 11.1855 7.4506 11.587 7.4506 11.9885C7.391 13.652 7.33139 15.2581 7.27179 16.9216C7.09297 20.7648 6.85455 24.608 6.67574 28.5086C6.61613 29.3117 6.37771 29.5985 5.48364 29.5985C3.99351 29.5411 2.50338 29.5411 0.953654 29.5985C0.119183 29.5985 -0.0596317 29.3117 -2.67216e-05 28.5086C0.238393 25.8126 0.357603 23.0593 0.536419 20.3633C0.834444 16.7495 1.07286 13.1931 1.31128 9.57935C1.43049 7.85851 1.4901 6.13767 1.60931 4.47419C1.66891 3.67113 1.72852 2.86807 1.84773 2.06501C1.90733 1.83556 2.26496 1.54876 2.50338 1.54876C5.18561 1.49139 7.80823 1.49139 10.4905 1.54876C10.7289 1.54876 11.1461 1.95029 11.2057 2.29445C12.8151 7.85851 14.4244 13.4226 15.9741 18.9866C15.9741 19.1013 16.0337 19.1587 16.0933 19.2161C17.1662 15.6023 18.2987 11.9885 19.4312 8.37476C20.0869 6.25239 20.8021 4.13002 21.577 2.00765C21.6366 1.7782 22.0538 1.54876 22.3519 1.54876C24.9149 1.49139 27.4779 1.54876 29.9813 1.49139C30.5177 1.49139 30.7562 1.66348 30.7562 2.17973C30.8158 3.49904 31.0542 4.76099 31.1138 6.0803C31.2926 9.52199 31.4118 12.9063 31.5906 16.348C31.8291 20.4206 32.0675 24.4933 32.3655 28.6233C32.4251 29.3117 32.1271 29.5411 31.4714 29.5411C29.7429 29.5411 27.9547 29.5411 26.2262 29.5411C25.5109 29.5411 25.3321 29.1969 25.3321 28.6233C25.2129 24.6654 25.0341 20.7075 24.9149 16.7495C24.8553 14.5698 24.9149 12.4474 24.9149 10.2677C24.7361 10.2103 24.6168 10.2103 24.4976 10.2103Z" fill="#455D7A"/>
<path d="M121.117 10.7266C122.905 9.29253 124.813 8.60419 127.018 8.60419C130.595 8.66155 133.217 10.0956 134.648 13.2505C136.793 17.8967 136.615 22.4856 133.396 26.673C130.535 30.4015 123.68 31.434 120.342 27.6482C120.283 27.5908 120.223 27.5908 120.164 27.5908C120.104 27.6482 120.044 27.7055 120.044 27.7055C119.866 29.5985 119.866 29.5985 117.899 29.5985C116.885 29.5985 115.872 29.5411 114.859 29.5985C114.024 29.6558 113.726 29.369 113.726 28.566C113.846 27.1893 113.905 25.7552 113.905 24.3786C113.905 16.6921 113.965 9.06308 113.905 1.37666C113.905 0.458875 114.203 0.172068 115.157 0.172068C116.766 0.229429 118.316 0.286791 119.925 0.114707C120.939 0.0573453 121.058 0.401514 121.058 1.20457C121.058 4.13 121.058 7.05543 121.058 9.98086C121.058 10.1529 121.117 10.325 121.117 10.7266ZM128.926 18.9292C128.687 18.0688 128.508 16.979 128.091 16.0038C127.435 14.5124 126.005 13.8814 124.217 14.0535C122.846 14.1682 121.535 15.2581 121.296 16.6921C121.058 18.0115 121.117 19.3881 121.117 20.7074C121.117 22.6577 122.369 24.2065 124.098 24.4359C126.243 24.6654 127.853 23.6902 128.449 21.6252C128.628 20.8222 128.687 20.0191 128.926 18.9292Z" fill="#455D7A"/>
<path d="M78.321 10.8987C80.1091 9.40728 81.8973 8.60422 84.1026 8.60422C87.9174 8.60422 90.54 10.956 91.3149 14.3977C91.4937 15.3729 91.5533 16.4054 91.6129 17.3805C91.6725 20.9369 91.6725 24.4933 91.6725 28.0497C91.6725 29.5411 91.6725 29.5411 90.1228 29.5411C88.6922 29.5411 87.2617 29.4838 85.8312 29.5411C84.8775 29.5985 84.5199 29.3117 84.5199 28.3365C84.5795 24.7228 84.5199 21.109 84.5199 17.4379C84.5199 15.8318 83.8642 14.7419 82.6721 14.3404C80.4667 13.5947 78.4402 15.0861 78.4402 17.4952C78.4402 21.0516 78.4402 24.608 78.4402 28.1644C78.4402 29.4838 78.4402 29.4838 77.0693 29.4838C75.4599 29.4838 73.8506 29.4838 72.2412 29.4838C71.5856 29.4838 71.3472 29.3117 71.3472 28.6233C71.3472 19.3882 71.3472 10.153 71.3472 0.917795C71.3472 0.229458 71.6452 0.0573742 72.3009 0.0573742C73.9102 0.0573742 75.5791 1.28254e-05 77.1885 -0.0573486C78.0825 -0.11471 78.4998 0.172097 78.4998 1.14724C78.4402 3.95795 78.4998 6.71129 78.4998 9.522C78.321 9.92353 78.321 10.2677 78.321 10.8987Z" fill="#455D7A"/>
<path d="M45.8959 27.935C44.227 29.3117 42.3196 29.9426 40.1142 29.9426C36.7167 29.9426 34.0345 28.0497 33.2596 25.1243C32.4848 21.9694 33.8557 18.9292 36.8359 17.4379C39.1605 16.2333 41.7236 15.7744 44.3462 15.717C44.5846 15.717 44.823 15.717 45.121 15.6597C45.2999 14.6271 44.7038 14.1683 43.8693 13.8241C41.7832 13.021 39.7566 13.5373 37.7896 14.2256C35.8823 14.8566 35.8823 14.9713 35.2862 13.021C35.167 12.6195 35.0478 12.218 34.9286 11.7591C34.5709 10.325 34.5709 10.325 35.9419 9.86615C39.3394 8.6042 42.856 8.14531 46.492 9.00573C49.8298 9.80879 52.0948 12.218 52.2736 15.5449C52.4525 18.4704 52.3929 21.4532 52.5121 24.3786C52.5717 25.7553 52.6313 27.1319 52.7505 28.5086C52.8101 29.2543 52.6313 29.5985 51.7372 29.5411C50.6047 29.4837 49.5318 29.5411 48.3993 29.5411C46.5516 29.5411 46.5516 29.5411 45.8959 27.935ZM45.3595 19.9044C43.9885 20.2486 42.6772 20.4206 41.4255 20.9369C40.1738 21.4532 39.8162 22.7151 40.293 23.805C40.7103 24.7801 41.9024 25.239 43.2137 24.8375C45.121 24.2639 45.8959 22.7151 45.3595 19.9044Z" fill="#455D7A"/>
<path d="M105.56 27.935C103.832 29.369 101.925 30 99.7192 30C96.3813 30 93.4607 28.0497 92.8646 25.1243C92.2686 22.0268 93.103 19.3308 96.5005 17.4378C98.5867 16.2906 100.911 15.8891 103.295 15.717C103.832 15.6596 104.309 15.717 104.845 15.717C104.666 14.2256 103.772 13.5373 101.865 13.4799C99.9576 13.4225 98.2291 13.8241 96.5005 14.6271C95.8449 14.9139 95.368 15.086 95.1892 14.1109C95.0104 13.1931 94.6528 12.2753 94.2951 11.3575C94.1163 10.7839 94.2951 10.4398 94.8316 10.2677C96.5601 9.75142 98.2291 9.06308 100.017 8.83363C102.878 8.4321 105.739 8.4321 108.302 9.98086C110.925 11.5296 111.819 13.9388 111.938 16.6921C112.057 19.216 111.938 21.7973 111.998 24.3786C111.998 25.6979 112.057 27.0746 112.236 28.3939C112.355 29.3116 112.117 29.7132 111.104 29.5985C110.031 29.5411 108.958 29.5985 107.885 29.5985C106.097 29.5411 106.097 29.5411 105.56 27.935ZM105.203 20.1912C103.474 20.1912 101.984 20.2486 100.732 21.1663C99.8384 21.7973 99.6 22.6577 99.898 23.6329C100.136 24.4933 100.852 24.8375 101.686 24.9522C103.176 25.1816 104.726 24.1491 105.024 22.7151C105.143 21.912 105.143 21.109 105.203 20.1912Z" fill="#455D7A"/>
<path d="M152.648 21.5106C152.827 23.002 153.781 23.6903 155.033 24.1492C157.655 25.1243 160.218 24.6654 162.841 24.0918C163.795 23.8624 164.271 23.8624 164.331 24.9522C164.391 25.87 164.748 26.7304 164.867 27.5909C164.927 27.935 164.689 28.566 164.391 28.6807C160.337 30.0574 156.165 30.4589 152.052 29.0249C148.536 27.7629 146.569 25.1817 145.973 21.74C145.377 18.6425 145.913 15.6597 147.701 12.9637C149.549 10.2677 152.112 8.77633 155.509 8.60425C157.834 8.48952 160.099 8.60425 162.126 9.98092C164.391 11.5297 165.583 13.7094 166 16.2907C166.238 17.6673 166.06 19.1587 166.119 20.5928C166.119 21.3958 165.702 21.5106 164.987 21.5106C161.291 21.5106 157.655 21.5106 153.96 21.5106C153.483 21.5106 153.125 21.5106 152.648 21.5106ZM152.648 16.5775C154.854 16.5775 157.119 16.5775 159.324 16.5775C159.145 14.4551 157.953 13.2505 156.106 13.2505C154.317 13.2505 152.827 14.6846 152.648 16.5775Z" fill="#455D7A"/>
<path d="M67.8902 14.5124C66.4596 14.1683 65.2079 13.7667 63.8966 13.5373C63.241 13.4226 62.5257 13.5373 61.87 13.7094C60.8568 13.9962 60.6779 15.086 61.572 15.6597C62.2277 16.1185 63.0621 16.348 63.837 16.6922C64.9695 17.151 66.102 17.6099 67.1153 18.1262C71.0492 20.2486 70.93 26.6157 66.5788 28.6807C62.8237 30.4589 59.009 30.2294 55.1943 29.0822C53.5849 28.6233 53.5849 28.566 53.9426 27.0172C54.181 26.1568 54.4194 25.2964 54.5982 24.3786C54.777 23.6329 55.0751 23.4608 55.8499 23.805C57.4593 24.5507 59.1878 25.0096 60.976 24.9522C61.2144 24.9522 61.4528 25.0096 61.572 24.8948C62.1085 24.5507 62.8237 24.3212 63.0025 23.805C63.3006 23.1166 62.6449 22.543 61.9892 22.2562C60.9164 21.7973 59.7839 21.5105 58.711 20.9943C57.8169 20.5927 56.9228 20.0765 56.148 19.5029C52.8101 16.9216 53.7041 11.587 57.9361 9.57935C61.3336 8.03059 64.7311 8.3174 68.1882 9.40726C68.8438 9.63671 69.1419 9.98088 68.9034 10.7266C68.5458 11.9885 68.2478 13.3078 67.8902 14.5124Z" fill="#455D7A"/>
<path d="M137.27 14.7419C137.27 10.2103 137.27 5.67879 137.27 1.14724C137.27 0.229457 137.628 1.16774e-05 138.522 0.0573731C140.191 0.114734 141.86 0.114734 143.529 0.0573731C144.125 0.0573731 144.363 0.172096 144.363 0.74571C144.363 0.860432 144.363 1.03252 144.363 1.14724C144.363 10.2103 144.363 19.2161 144.423 28.2792C144.423 29.3117 144.125 29.6558 143.052 29.5411C141.562 29.4264 140.131 29.5411 138.641 29.5411C137.27 29.5411 137.27 29.5411 137.27 28.1644C137.27 23.6903 137.27 19.2161 137.27 14.7419Z" fill="#455D7A"/>
</g>
<defs>
<clipPath id="clip0">
<rect width="166" height="30" fill="white"/>
</clipPath>
</defs>
</svg>
