<svg width="208" height="31" viewBox="0 0 208 31" fill="none" xmlns="http://www.w3.org/2000/svg">
<g clip-path="url(#clip0)">
<path d="M188.259 28.6456C188.035 27.3637 187.955 26.061 188.018 24.7613C188.018 21.255 188.156 17.7488 187.904 14.2426C187.898 12.9494 187.475 11.6926 186.696 10.6601C185.918 9.62748 184.826 8.87446 183.584 8.51346C179.852 7.23007 175.781 7.34407 172.126 8.83429C171.128 9.19887 170.252 9.83715 169.6 10.6761C168.947 11.515 168.544 12.5207 168.436 13.578C168.31 14.5176 168.436 14.8957 169.479 14.8384C171.06 14.7697 172.653 14.7697 174.234 14.8384C175.162 14.8384 175.666 14.7697 175.815 13.6238C175.881 13.2672 176.023 12.929 176.232 12.6323C176.441 12.3357 176.711 12.0875 177.024 11.9047C177.337 11.722 177.686 11.609 178.047 11.5735C178.408 11.5379 178.773 11.5807 179.115 11.6989C179.798 12.0131 180.35 12.5563 180.674 13.2343C180.998 13.9123 181.075 14.6825 180.891 15.4113C180.605 16.5572 179.551 15.8238 178.863 15.9613C178.243 16.0206 177.619 16.0398 176.996 16.0186C174.631 16.0546 172.305 16.6348 170.201 17.7144C168.964 18.4371 167.994 19.5409 167.436 20.8607C166.878 22.1805 166.763 23.6454 167.107 25.0363C167.282 26.3142 167.882 27.4958 168.812 28.3899C169.741 29.2841 170.945 29.8385 172.229 29.9633C175.529 30.5133 178.531 29.9633 180.697 27.0873C180.815 27.2282 180.897 27.3954 180.937 27.5749C180.977 27.7544 180.973 27.9409 180.926 28.1185C180.8 29.3904 181.338 29.7914 182.587 29.6998C184.168 29.5966 185.761 29.6998 187.342 29.6998C188.122 29.7112 188.465 29.5508 188.259 28.6456ZM180.834 21.4727C180.797 22.6845 180.334 23.8445 179.528 24.7498C179.087 25.2364 178.498 25.5649 177.852 25.6849C177.207 25.805 176.539 25.7099 175.953 25.4144C175.431 25.1576 175.007 24.7382 174.745 24.2194C174.482 23.7007 174.396 23.1107 174.498 22.5384C174.518 21.9291 174.752 21.3464 175.158 20.892C175.564 20.4375 176.117 20.1402 176.721 20.0519C177.557 19.8457 178.416 19.7884 179.276 19.6509C181.04 19.6738 181.04 19.7311 180.834 21.4727V21.4727Z" fill="#455D7A"/>
<path d="M160.324 15.8926C159.934 15.8926 159.556 15.8926 159.178 15.8926C157.734 15.9728 156.566 16.0988 156.222 13.9676C155.878 11.8363 152.945 11.5957 151.639 13.2801C151.32 13.6963 151.086 14.1714 150.951 14.678C150.212 17.4832 150.212 20.4321 150.951 23.2373C150.995 23.611 151.113 23.9722 151.297 24.3003C151.481 24.6284 151.728 24.9168 152.024 25.149C152.32 25.3812 152.659 25.5525 153.022 25.6531C153.384 25.7537 153.763 25.7816 154.137 25.7352C155.512 25.5863 156.428 24.5894 156.428 22.7331C156.428 21.5873 156.818 21.3582 157.872 21.404C159.601 21.5072 161.334 21.5072 163.063 21.404C164.208 21.3352 164.3 21.8279 164.208 22.7561C163.955 24.4851 163.169 26.0921 161.959 27.3532C160.749 28.6142 159.176 29.4666 157.459 29.7914C155.047 30.4174 152.515 30.4174 150.103 29.7914C148.277 29.3798 146.617 28.4289 145.338 27.062C144.059 25.6951 143.22 23.9753 142.93 22.1259C142.14 17.7946 142.369 13.5322 145.978 10.4384C149.588 7.34471 154.171 7.13846 158.663 8.52491C160.087 8.92608 161.362 9.73562 162.332 10.8535C163.301 11.9715 163.921 13.3488 164.117 14.8155C164.289 15.7436 164.048 16.0301 163.12 15.9613C162.192 15.8926 161.298 15.9613 160.381 15.9613L160.324 15.8926Z" fill="#455D7A"/>
<path d="M16.2707 11.7905C17.4454 10.0626 19.189 8.80158 21.1978 8.227C26.3884 6.94368 30.3644 10.0718 30.5935 15.6176C30.7196 19.3644 30.5935 23.1227 30.5935 26.8696C30.5935 27.4998 30.5935 28.13 30.5935 28.7487C30.5935 29.3675 30.3415 29.7112 29.6081 29.7227C27.4998 29.7914 27.4998 29.7914 27.4998 27.6373C27.4998 23.9248 27.4998 20.2238 27.4998 16.5228C27.4998 13.0853 26.0332 11.2405 23.1342 10.9999C20.0519 10.7478 17.9322 12.4551 17.2676 15.7207C17.0826 16.9066 17.0173 18.1081 17.0728 19.3071C17.0728 22.2863 17.0041 25.2769 17.0728 28.256C17.0728 29.4935 16.6832 29.906 15.5259 29.7112C15.336 29.6826 15.1429 29.6826 14.953 29.7112C14.0707 29.8373 13.8072 29.4935 13.8072 28.5654C13.8072 24.3373 13.8072 20.0978 13.8072 15.8697C13.8838 14.7788 13.5679 13.6966 12.9165 12.8183C12.2652 11.9399 11.3212 11.3235 10.2551 11.0801C9.07875 10.7462 7.82179 10.8431 6.71055 11.3536C5.59932 11.8641 4.70681 12.7544 4.19372 13.8645C3.66298 14.996 3.40401 16.2359 3.43748 17.4853C3.43748 21.0946 3.36873 24.704 3.43748 28.3133C3.43748 29.6539 2.9104 29.7914 1.84478 29.7227C0.779161 29.6539 0.148957 29.8831 0.160416 28.3935C0.171874 22.1373 0.412497 15.8811 0 9.63637C0 8.84575 0.171874 8.49054 1.01978 8.49054C3.05935 8.49054 3.05935 8.49054 3.47185 10.4499C7.66557 6.56555 13.3947 7.29888 16.2707 11.7905Z" fill="#455D7A"/>
<path d="M194.951 19.7998C194.951 18.0696 194.951 16.3624 194.951 14.6092C194.951 13.853 194.687 13.6353 193.942 13.6124C191.066 13.5093 191.066 13.4749 191.066 10.5301C191.066 8.52491 191.066 8.52491 193.014 8.52491C194.962 8.52491 195.077 8.52491 195.008 6.61138C194.928 6.17092 195.025 5.71652 195.278 5.34731C195.531 4.97809 195.92 4.72404 196.36 4.64057C198.033 4.06765 199.672 3.34578 201.287 2.62391C202.089 2.26871 202.433 2.31454 202.353 3.29995C202.284 4.74369 202.353 6.18743 202.353 7.61971C202.353 8.30721 202.559 8.57075 203.258 8.53637C204.22 8.53637 205.183 8.53637 206.134 8.53637C207.085 8.53637 207.28 8.84574 207.28 9.6822C207.205 10.6433 207.205 11.6086 207.28 12.5697C207.36 13.5093 206.959 13.7155 206.134 13.7155C204.988 13.7155 203.361 13.3145 202.697 13.9218C202.032 14.529 202.456 16.2707 202.422 17.4967C202.387 18.7228 202.422 20.1894 202.422 21.53C202.422 24.3488 203.178 25.0936 205.985 24.8529C207.131 24.7613 207.486 25.0363 207.303 26.1133C207.297 26.2087 207.297 26.3044 207.303 26.3998C207.303 30.0321 207.303 30.0321 203.602 30.1237C201.925 30.2406 200.239 30.0976 198.606 29.6998C197.642 29.5391 196.766 29.0404 196.136 28.2929C195.506 27.5455 195.163 26.5981 195.168 25.6206C195.042 23.7071 195.168 21.7821 195.168 19.8915L194.951 19.7998Z" fill="#455D7A"/>
<path d="M76.4609 20.6249V2.14269C76.4609 -0.0343747 76.4609 0.0229165 74.3412 0C73.3328 0 73.2641 0.412497 73.3328 1.20312C73.3328 3.98747 73.3328 6.77183 73.3328 9.56764C73.3328 9.89993 73.5391 10.3239 73.0807 10.5989C72.8287 10.3697 72.588 10.1291 72.3245 9.92285C68.1995 6.54266 61.9204 7.53953 59.56 12.2145C58.3593 14.4534 57.7627 16.9665 57.829 19.5062C57.8953 22.0459 58.6222 24.5245 59.9381 26.6977C60.4948 27.6659 61.2711 28.4897 62.2045 29.1027C63.138 29.7157 64.2024 30.1008 65.3121 30.2269C66.7614 30.4265 68.2375 30.2723 69.6143 29.7774C70.9911 29.2826 72.2276 28.4618 73.2182 27.3852C73.4932 29.7915 73.4932 29.7571 75.6818 29.7342C76.5068 29.7342 76.8276 29.4821 76.6786 28.6456C76.4641 25.9778 76.3914 23.3004 76.4609 20.6249V20.6249ZM71.8776 24.4863C70.7318 26.7779 68.5089 27.5456 66.0225 27.2936C63.7308 27.0759 62.6537 25.4832 61.9548 23.5123C61.5035 22.0891 61.2717 20.6054 61.2673 19.1124C61.216 17.5216 61.4808 15.9365 62.0465 14.4489C62.3691 13.455 62.9966 12.5879 63.8399 11.9709C64.6832 11.3538 65.6994 11.0181 66.7443 11.0114C67.8539 10.8713 68.9793 11.0878 69.9577 11.6295C70.9361 12.1712 71.7169 13.0101 72.187 14.0249C72.966 15.6625 73.3452 17.4616 73.2934 19.2743C73.2416 21.087 72.7603 22.8615 71.8891 24.4519L71.8776 24.4863Z" fill="#455D7A"/>
<path d="M85.238 20.0749H92.0212C94.3129 20.0749 96.6046 20.0749 98.8962 20.0749C99.641 20.0749 99.916 19.8916 99.8931 19.1124C99.8623 17.5267 99.6273 15.9516 99.1941 14.426C98.7344 12.6256 97.6983 11.025 96.2439 9.86848C94.7895 8.71198 92.9967 8.06309 91.139 8.02081C89.2558 7.8139 87.3559 8.21789 85.7198 9.17313C84.0837 10.1284 82.7981 11.5843 82.0526 13.326C81.1833 15.2134 80.7418 17.2695 80.7597 19.3474C80.7775 21.4252 81.2542 23.4735 82.1557 25.3457C82.9274 27.064 84.243 28.4807 85.8995 29.3774C87.5561 30.274 89.4617 30.6007 91.3223 30.3071C95.7223 29.8144 98.6441 27.3509 99.5035 23.4322C99.5035 23.1686 99.7899 22.8936 99.5035 22.6301C98.965 22.1145 96.4327 22.6301 96.1691 23.3978C95.9276 24.1717 95.5385 24.8916 95.0233 25.5176C94.1422 26.4506 92.9913 27.0848 91.7318 27.3314C90.4724 27.5779 89.1673 27.4245 87.9994 26.8926C86.8913 26.3056 85.9587 25.4354 85.2964 24.3706C84.6342 23.3058 84.2661 22.0845 84.2296 20.8311C84.2984 19.9603 84.7911 20.0749 85.238 20.0749ZM84.5046 16.0416C84.7232 14.6827 85.3943 13.4374 86.4093 12.5077C87.4242 11.5781 88.7234 11.0185 90.0963 10.9197C91.5004 10.8157 92.8949 11.222 94.0233 12.0641C95.1516 12.9062 95.9381 14.1274 96.2379 15.503C96.5473 16.6489 96.4785 17.1874 95.0921 17.0843C93.5108 16.9697 91.9296 17.0843 90.3483 17.0843C88.7671 17.0843 87.0827 17.0843 85.4557 17.0843C84.6651 17.1874 84.3213 17.0041 84.5046 16.0416Z" fill="#455D7A"/>
<path d="M52.4903 12.1801C48.9153 6.6114 40.356 6.45098 36.7352 11.9739C35.5375 13.7622 34.8054 15.8213 34.6053 17.9644C34.4052 20.1074 34.7435 22.2665 35.5894 24.2457C36.24 26.0705 37.452 27.6423 39.0516 28.7355C40.6511 29.8286 42.5559 30.3868 44.4924 30.33C46.4672 30.3825 48.4071 29.8027 50.0293 28.6753C51.6515 27.5478 52.871 25.9316 53.5101 24.0623C54.1069 22.3967 54.4131 20.641 54.4153 18.8717C54.3903 16.5082 53.7251 14.1956 52.4903 12.1801V12.1801ZM49.5799 24.429C49.0623 25.3575 48.3004 26.1265 47.3768 26.6527C46.4531 27.1789 45.403 27.4421 44.3404 27.4137C43.2778 27.3854 42.2432 27.0666 41.3489 26.492C40.4546 25.9173 39.7348 25.1088 39.2675 24.154C38.3611 22.5806 37.8974 20.7912 37.9256 18.9757C37.9539 17.1601 38.473 15.386 39.4279 13.8416C39.9184 12.9823 40.6207 12.2628 41.4679 11.7517C42.3151 11.2405 43.279 10.9547 44.2679 10.9214C45.2568 10.8881 46.2377 11.1084 47.1174 11.5614C47.9971 12.0144 48.7462 12.6849 49.2934 13.5093C50.3501 15.1254 50.9318 17.0058 50.9724 18.9363C51.0129 20.8668 50.5106 22.7699 49.5226 24.429H49.5799Z" fill="#455D7A"/>
<path d="M123.887 10.7708C124.632 9.90577 125.555 9.21217 126.594 8.7375C127.632 8.26284 128.761 8.01834 129.902 8.02077C134.05 8.02077 136.697 10.2437 137.339 14.3457C137.451 15.0085 137.512 15.6788 137.522 16.3509C137.522 20.4301 137.522 24.5207 137.522 28.5998C137.522 29.4019 137.407 29.8144 136.445 29.7456C134.314 29.7456 134.314 29.7456 134.314 27.5915C134.314 23.9019 134.314 20.2009 134.314 16.4999C134.314 13.1426 132.847 11.3207 130.04 11.0114C127.038 10.6905 124.815 12.3291 124.116 15.4686C123.944 16.3634 123.863 17.2732 123.875 18.1842C123.875 21.6446 123.875 25.105 123.875 28.5654C123.875 29.4019 123.703 29.7112 122.729 29.7112C120.61 29.7112 120.621 29.7112 120.598 27.58C120.598 21.5759 120.747 15.5718 120.461 9.56763C120.461 8.82285 120.587 8.42181 121.377 8.55931H121.664C123.749 8.52493 123.749 8.52493 123.887 10.7708Z" fill="#455D7A"/>
<path d="M109.186 10.3124C109.895 9.40073 110.844 8.70382 111.927 8.29924C113.009 7.89465 114.182 7.79826 115.316 8.02077C117 8.19264 115.946 9.51034 116.164 10.3124C116.381 11.1145 115.957 11.2749 115.259 11.1489C111.363 10.4843 109.151 13.1426 109.094 17.0613C109.037 20.9801 109.014 24.6696 109.094 28.5196C109.094 29.8144 108.578 29.906 107.57 29.8602C106.562 29.8144 105.805 30.0206 105.805 28.4623C105.805 22.1717 106.046 15.8582 105.679 9.56764C105.679 8.94889 105.794 8.66243 106.436 8.69681C106.966 8.73693 107.498 8.73693 108.028 8.69681C109.323 8.41035 108.853 9.45305 109.186 10.3124Z" fill="#455D7A"/>
</g>
<defs>
<clipPath id="clip0">
<rect width="207.257" height="30.33" fill="white"/>
</clipPath>
</defs>
</svg>
