<svg xmlns="http://www.w3.org/2000/svg" viewBox="0 0 290.32 174.69"><defs><style>.cls-1{fill:#a487fd;}.cls-2{fill:#fff;}</style></defs><title>Asset 9</title><g id="Layer_2" data-name="Layer 2"><g id="Layer_1-2" data-name="Layer 1"><path class="cls-1" d="M111.56,1c25.75-3.37,63.35,2.68,88.76,8.73,21,5,38,2,59.05,11.7a57.17,57.17,0,0,1,25,22.91c8.28,14.17,7.64,32.62,0,47.15-6.85,13-18.57,22.85-31,30.74-23.11,14.66-47.92,29.32-74.68,36-22.18,5.52-45.66,5.66-68.45,8.93-14.9,2.15-29.54,5.63-44.57,7s-30.85.5-44.13-5.62c-7.28-3.35-13.68-8.32-17.39-14.62-5.46-9.26-4.64-20.26-2.46-30.46,4.09-19.08,12.44-37.22,17.69-56,4.95-17.75,5.9-33.77,23.81-46.23C61.25,8.57,86.3,4.44,108.75,1.34Z"/><text/><path class="cls-2" d="M57.16,90.29a5.34,5.34,0,0,1,3.51,2.85q.22,7.55.68,14.93t.5,12.43q0,5,.18,7.52c.09,1.65.16,3.31.19,5l-.1,1.45c0,.49,0,.95,0,1.38s0,.89,0,1.38a6.33,6.33,0,0,1-4.5,3.11,7.9,7.9,0,0,1-5.61-.59c-.9-.44-1.3-1.69-1.19-3.75a13.82,13.82,0,0,0-.21-3.1c-.19-1.25-.33-2.29-.41-3.13l0-.13a14.69,14.69,0,0,0-3.12,2.58c-.88,1-1.43,1.59-1.65,1.84a3.11,3.11,0,0,1-.94.67c-.41.19-.79.35-1.12.47a3.43,3.43,0,0,0-1.61.74c-1.57,5-4.4,12.42-6.28,13.36a8.54,8.54,0,0,1-3.71,1.08,4.18,4.18,0,0,1-3.45-1.62c-1.66-1-.95-9-.08-15.28a122.55,122.55,0,0,1,2.52-12.08q1.8-7.11,3.72-12.53a84.36,84.36,0,0,1,10.2-20.28c.74-.52,1.55-1.11,2.41-1.76a7.5,7.5,0,0,1,2.66-1.34,10.17,10.17,0,0,1,3-.28,7.67,7.67,0,0,1,2.78.64Q58.27,87.14,57.16,90.29Zm-10.32,20c-.37,2.78-.78,5.37-1.23,7.74s-.83,4.45-1.14,6.23L49.56,123c-.23-2.84-.42-5.67-.55-8.49s-.3-5.63-.48-8.44Zm.95,13.35a14.17,14.17,0,0,0,1.8-.51l0-.07-1.53.46C47.57,123.63,47.49,123.67,47.79,123.61Z"/><path class="cls-2" d="M78.47,104.06a13.28,13.28,0,0,1,7.8-7.73,41.11,41.11,0,0,1,4.54-1.42,7.69,7.69,0,0,1,5,.24A8.7,8.7,0,0,1,99.5,98c1.66,2.32,2.48,5.42,2.48,9.31q0,3.18-.15,7a34.72,34.72,0,0,1-1.22,7.81,29.55,29.55,0,0,1-3.34,7.67,20.62,20.62,0,0,1-6.56,6.52A10,10,0,0,1,86,138.23a9.58,9.58,0,0,1-3.33-.22,3.17,3.17,0,0,1-1.78-1.39q-.52,4-.87,8a37.87,37.87,0,0,1-1.5,7.87,9.89,9.89,0,0,1-2.92,1.93,6.79,6.79,0,0,1-3.74.58,4.49,4.49,0,0,1-3.09-1.66A7.79,7.79,0,0,1,67.2,150a20.26,20.26,0,0,1,0-6.43q.69-5.76,1.22-8.92c.35-2.11.57-3.47.66-4.1s.19-1.29.27-2q.63-4.06.83-6.57c.12-1.68.26-3.14.4-4.39v-.06a35.11,35.11,0,0,1,.77-6.5,29.11,29.11,0,0,1,1.1-4.33,4.79,4.79,0,0,1,2-1.84A17,17,0,0,1,77,104l.19,0Zm7.19,9.81a7.86,7.86,0,0,1-2.06,3.07l-.3,1.49c-.2,1.22-.37,2.45-.52,3.7s-.34,2.48-.58,3.71a5.76,5.76,0,0,1,1.23,1,33.11,33.11,0,0,0,4.87-9.76,13.66,13.66,0,0,0,.64-4.6,7.9,7.9,0,0,0-.41-2.76c-.21-.36-.46-.52-.74-.46a1.86,1.86,0,0,0-.8.41,2.65,2.65,0,0,0-.55.59c-.12.18-.11.19,0,0a8.83,8.83,0,0,0-.74,1.68A5.45,5.45,0,0,0,85.66,113.87Z"/><path class="cls-2" d="M118,95.81a13.34,13.34,0,0,1,7.8-7.73,41.36,41.36,0,0,1,4.55-1.42,7.7,7.7,0,0,1,5,.24A8.68,8.68,0,0,1,139,89.79q2.49,3.48,2.49,9.31,0,3.18-.16,7a34.6,34.6,0,0,1-1.21,7.81,29.58,29.58,0,0,1-3.35,7.67,20.62,20.62,0,0,1-6.56,6.52,10,10,0,0,1-4.73,1.84,9.53,9.53,0,0,1-3.33-.22,3.11,3.11,0,0,1-1.78-1.39q-.52,4-.87,8a37.8,37.8,0,0,1-1.51,7.86,9.77,9.77,0,0,1-2.91,1.93,6.83,6.83,0,0,1-3.75.58,4.53,4.53,0,0,1-3.09-1.66,7.61,7.61,0,0,1-1.53-3.3,20.46,20.46,0,0,1-.06-6.42c.47-3.85.87-6.82,1.22-8.93s.57-3.47.67-4.1.18-1.29.26-2q.64-4.06.83-6.57c.12-1.68.26-3.14.41-4.39l0-.06a36,36,0,0,1,.78-6.5,29.63,29.63,0,0,1,1.09-4.33,4.75,4.75,0,0,1,2-1.83,16.25,16.25,0,0,1,2.59-.89l.2,0Zm7.2,9.81a7.79,7.79,0,0,1-2.07,3.07l-.3,1.49c-.2,1.22-.37,2.45-.51,3.7s-.34,2.49-.58,3.71a6.06,6.06,0,0,1,1.23,1,33.36,33.36,0,0,0,4.87-9.76,13.9,13.9,0,0,0,.63-4.6,7.66,7.66,0,0,0-.41-2.76c-.21-.36-.46-.51-.74-.45a1.7,1.7,0,0,0-.79.4,3,3,0,0,0-.56.59c-.12.18-.1.19,0,0a8.69,8.69,0,0,0-.73,1.68A5.21,5.21,0,0,0,125.16,105.62Z"/><path class="cls-2" d="M170.17,103.05a15.66,15.66,0,0,1-2.21,1.41c-.74.38-1.6.78-2.59,1.22a53.62,53.62,0,0,1-5.71,2.21c.22.4,1,.79,2.28,1.15a5,5,0,0,0,2.48-.89c.86-.57,1.76-1.12,2.71-1.65a11.68,11.68,0,0,1,2.87-1.18,3.87,3.87,0,0,1,3,.53,3.62,3.62,0,0,0,1.13,1.19,1.29,1.29,0,0,0,.62.07,1.21,1.21,0,0,1,.63.07,4.26,4.26,0,0,1,1.25,1.3,2.21,2.21,0,0,1,.19,2.53,7.6,7.6,0,0,1-2.47,2.62,23.4,23.4,0,0,1-4.26,2.31,43.31,43.31,0,0,1-5,1.8q-5.74,1.67-9.08,1a8.62,8.62,0,0,1-7-4.72q-2.91-5.49-1-14a34.09,34.09,0,0,1,3.5-8.86,18.75,18.75,0,0,1,5.71-6.68A21.62,21.62,0,0,1,166,80.75q5.08-.91,7.93,3A12.56,12.56,0,0,1,175.64,90q.08,5.55-1.16,8.1A15.36,15.36,0,0,1,170.17,103.05Zm-4-42q3.88-.54,6.06.76,2.46,1.39.52,3.82a5.29,5.29,0,0,1-.45,1.72,31.37,31.37,0,0,1-5.61,6.87c-2.21,1.77-4.08,2.52-5.63,2.25s-2.13-1.47-1.64-3.65l.29-.53c-.21-1.68.39-4.08,1.82-7.22a6.78,6.78,0,0,1,.95-1.63,14.5,14.5,0,0,1,3.5-2.35Zm-1.88,32.5c-2.39,0-3.92,1.68-4.57,5a13.49,13.49,0,0,0-.37,2.79c1.51-.14,2.89-1.29,4.16-3.45a8.57,8.57,0,0,0,.89-2.52A2.88,2.88,0,0,0,164.26,93.58Z"/><path class="cls-2" d="M192.44,58.68V58.4l.46-.71a3.49,3.49,0,0,1,1.14-2.33l1.1-.57a7.33,7.33,0,0,0,1.68-1.37c.17-.67.75-1.07,1.71-1.2a6.82,6.82,0,0,1,5.75,2.08,3.57,3.57,0,0,1,1,2.87c-.09,1.08-.18,1.89-.27,2.42s-.19,1-.29,1.52-.24,1-.41,1.61-.38,1.4-.62,2.4l-1.2,4.93a2.27,2.27,0,0,1-.35,1.09,1.13,1.13,0,0,0-.33.54c.37-.17.68-.3.93-.4l.75-.29c.59-.22,1.27-.45,2-.69a8.3,8.3,0,0,0,1.26-.13l.91-.19a5.47,5.47,0,0,1,2,0,2.25,2.25,0,0,1,1.73,1.16,4,4,0,0,1,.51,2.09,5,5,0,0,1-.63,2.2,2.77,2.77,0,0,1-1.81,1.4,45.49,45.49,0,0,1-7.69,3.36l-.3.54,0,.06c-.22,1.13-.41,2.54-.58,4.22s-.35,3.51-.55,5.47-.4,4-.59,6.09-.43,4.12-.7,6.07q-1.2,9.8-2.47,10.88a4,4,0,0,1-1,.58,1.94,1.94,0,0,0-.58.29,9.46,9.46,0,0,1-3.95-.12,6,6,0,0,1-2.33-1.07,1.87,1.87,0,0,1-.6-1.57A163.1,163.1,0,0,1,188,85.89a4.75,4.75,0,0,0-1.76.64A5.62,5.62,0,0,1,184,87.61h-.06a2.85,2.85,0,0,1-2.09-.58,3.95,3.95,0,0,1-1.58-4.34,4.23,4.23,0,0,1,1.93-2.44c1.3-.68,2.25-1.22,2.84-1.61a25,25,0,0,1,2.92-1.76,9.22,9.22,0,0,0,1.34-.72,1.71,1.71,0,0,0,.2-.21,2.12,2.12,0,0,1,.94-.33c0-1.31,0-2.64,0-4s0-2.74.15-4.16A27.71,27.71,0,0,1,192.44,58.68Z"/><path class="cls-2" d="M217.29,74.82c.26-1.54,1.4-2.8,3.41-3.76a9.28,9.28,0,0,1,5.63-1c1.92.32,2.95,1.28,3.1,2.87-.16,1.62-.37,3.59-.62,5.93s-.47,4.72-.64,7.14a85.59,85.59,0,0,0-.39,13.09c.17,4-.48,6.36-1.93,7-.41.17-.81.32-1.19.45-.94.24-1.5.62-1.66,1.16a2.48,2.48,0,0,1-1.07,1.34,5.18,5.18,0,0,1-1.91.74,6.08,6.08,0,0,1-2.28-.07,5.3,5.3,0,0,1-2.18-1q-2.28-1.83-1.95-5.76a89.47,89.47,0,0,1,1.51-19.08A43.34,43.34,0,0,1,217.29,74.82Z"/><path class="cls-2" d="M244.19,47.87v-.28l.46-.7a3.49,3.49,0,0,1,1.14-2.34l1.1-.57a7.06,7.06,0,0,0,1.68-1.37q.25-1,1.71-1.2A6.82,6.82,0,0,1,256,43.49a3.57,3.57,0,0,1,1,2.87q-.13,1.62-.27,2.43c-.09.54-.19,1-.29,1.51s-.24,1-.41,1.61-.38,1.4-.62,2.4l-1.21,4.93a2.3,2.3,0,0,1-.34,1.09,1.19,1.19,0,0,0-.33.54c.37-.17.68-.3.93-.4l.75-.29,2-.69a8.3,8.3,0,0,0,1.26-.13l.91-.19a5.47,5.47,0,0,1,2,0,2.28,2.28,0,0,1,1.73,1.16,4,4,0,0,1,.51,2.1,4.91,4.91,0,0,1-.63,2.19,2.8,2.8,0,0,1-1.81,1.4,45.14,45.14,0,0,1-7.7,3.36l-.29.54V70c-.21,1.12-.4,2.53-.57,4.21s-.35,3.51-.55,5.47-.4,4-.6,6.09-.42,4.12-.69,6.07q-1.2,9.8-2.47,10.88a3.73,3.73,0,0,1-1,.58,1.94,1.94,0,0,0-.58.29,9.46,9.46,0,0,1-3.95-.12,6,6,0,0,1-2.33-1.07,1.85,1.85,0,0,1-.6-1.57,161.8,161.8,0,0,1-.23-25.76,4.41,4.41,0,0,0-1.76.64,5.61,5.61,0,0,1-2.22,1.07h-.06a2.85,2.85,0,0,1-2.09-.58A3.95,3.95,0,0,1,232,71.89a4.22,4.22,0,0,1,1.93-2.44,32.35,32.35,0,0,0,2.84-1.61,25,25,0,0,1,2.92-1.76,9.22,9.22,0,0,0,1.34-.72,1.71,1.71,0,0,0,.2-.21,2.26,2.26,0,0,1,.94-.33c0-1.31,0-2.64,0-4s0-2.74.15-4.16A27.71,27.71,0,0,1,244.19,47.87Z"/><path class="cls-2" d="M94.61,64.6a15.7,15.7,0,0,1-4.13,3.49,11.36,11.36,0,0,1-4.75,1.51,7.35,7.35,0,0,1-4.61-1.14,53.85,53.85,0,0,0,.09,10.33,4.65,4.65,0,0,1-.42,1.8,6.31,6.31,0,0,1-3.53,5,9.25,9.25,0,0,1-6.35,1.08,6,6,0,0,1-2.65-1.29,4.7,4.7,0,0,1-1.53-2.66,211.85,211.85,0,0,1,2.51-23.63c.25-1.31.46-2.37.6-3.19s.3-1.52.44-2.1.28-1.09.4-1.53.27-.93.46-1.49c.42-1.27.9-2.76,1.43-4.47a27.3,27.3,0,0,1,1.48-3.89A13.4,13.4,0,0,1,75.58,40a20.65,20.65,0,0,1,2-2.06c.73-.67,1.64-1.55,2.73-2.61a10.18,10.18,0,0,1,7.94-2.91,10,10,0,0,1,7.4,4.4q2.63,3.77,3.07,11Q99.33,58.95,94.61,64.6ZM81.78,62.25q4.36-2,5-7.43a19,19,0,0,0-1.53-9.66A44.65,44.65,0,0,0,84,50.22q-.51,2.58-.93,4.62Q82.15,59.4,81.78,62.25Z"/><path class="cls-2" d="M123.21,62.48a12.91,12.91,0,0,1-1.9,1.25c-.63.34-1.37.7-2.22,1.09a47.24,47.24,0,0,1-4.91,2q.3.52,2,1a4.2,4.2,0,0,0,2.14-.8c.74-.5,1.51-1,2.32-1.46a10.34,10.34,0,0,1,2.47-1.06,3.33,3.33,0,0,1,2.6.42,3.1,3.1,0,0,0,1,1,1,1,0,0,0,.54.05,1.07,1.07,0,0,1,.54.06c.22.07.58.44,1.11,1.1a1.93,1.93,0,0,1,.19,2.19,6.53,6.53,0,0,1-2.1,2.3,20.28,20.28,0,0,1-3.65,2.06A39.36,39.36,0,0,1,119,75.26c-3.3,1-5.91,1.33-7.85.94a7.45,7.45,0,0,1-6.07-4q-2.6-4.71-1-12.12a30.16,30.16,0,0,1,2.91-7.72,16.51,16.51,0,0,1,4.87-5.86,18.7,18.7,0,0,1,7.5-3.27,6.41,6.41,0,0,1,6.9,2.45,10.76,10.76,0,0,1,1.57,5.41q.14,4.8-.89,7A13.5,13.5,0,0,1,123.21,62.48ZM118,54.36q-3.1.06-3.89,4.41a11.34,11.34,0,0,0-.28,2.41c1.3-.13,2.49-1.14,3.55-3a7.33,7.33,0,0,0,.74-2.2A2.46,2.46,0,0,0,118,54.36Z"/><path class="cls-2" d="M143.24,23.54V23.3l.39-.62a3.08,3.08,0,0,1,1-2l.95-.5A6.55,6.55,0,0,0,147,18.93c.14-.58.63-.93,1.47-1.06a5.87,5.87,0,0,1,5,1.72,3.12,3.12,0,0,1,.93,2.47c-.06.94-.13,1.64-.2,2.11s-.15.9-.23,1.31-.2.88-.34,1.4-.3,1.22-.5,2.09l-1,4.28a1.85,1.85,0,0,1-.29.94,1.21,1.21,0,0,0-.27.48l.8-.36.65-.26c.5-.2,1.08-.4,1.74-.63a6.14,6.14,0,0,0,1.09-.13l.78-.17a4.86,4.86,0,0,1,1.71,0,2,2,0,0,1,1.51,1,3.45,3.45,0,0,1,.47,1.81,4.2,4.2,0,0,1-.51,1.91,2.44,2.44,0,0,1-1.55,1.23,39,39,0,0,1-6.62,3l-.25.47,0,.06c-.18,1-.32,2.2-.44,3.66s-.26,3-.41,4.74-.29,3.46-.43,5.27-.32,3.57-.53,5.27c-.6,5.67-1.27,8.81-2,9.45a3.37,3.37,0,0,1-.85.51,2,2,0,0,0-.51.26,8.25,8.25,0,0,1-3.42,0,5.39,5.39,0,0,1-2-.9,1.55,1.55,0,0,1-.53-1.35,138.31,138.31,0,0,1-.54-22.29,3.89,3.89,0,0,0-1.52.57,4.77,4.77,0,0,1-1.91,1h-.05a2.44,2.44,0,0,1-1.81-.47,3.5,3.5,0,0,1-1.3-1.59,3.47,3.47,0,0,1-.13-2.15,3.65,3.65,0,0,1,1.63-2.14c1.12-.6,1.94-1.08,2.45-1.43a21.23,21.23,0,0,1,2.5-1.56,8.16,8.16,0,0,0,1.15-.64l.17-.18a2,2,0,0,1,.81-.31c0-1.13,0-2.28-.07-3.45s0-2.37.07-3.61A24.21,24.21,0,0,1,143.24,23.54Z"/><path class="cls-2" d="M218.2,63.42a3.24,3.24,0,0,1-2.4-3.12A4.39,4.39,0,0,1,217,57.23a5,5,0,0,1,.94-.89,17.57,17.57,0,0,0,3.18-3,9.56,9.56,0,0,1,1-.95,3.44,3.44,0,0,1,5.31.75c.35.54.58,1.14.91,1.69a30.21,30.21,0,0,0,1.73,2.7,6.15,6.15,0,0,1,1.49,3.52,3.3,3.3,0,0,1-3,3.52,1.15,1.15,0,0,0-.17.06l-1.05-.13c-.92-.35-1.82-.75-2.75-1.05a5.8,5.8,0,0,0-1.92-.34c-1.22,0-2.43.24-3.64.37Z"/><path class="cls-2" d="M236.1,53.49a4.29,4.29,0,0,1-1.72,2.34,4,4,0,0,1-1.51.55,2.07,2.07,0,0,1-2.29-2.18,4,4,0,0,1,2.84-3.89,2.12,2.12,0,0,1,2.74,1.9l.06.33Z"/><path class="cls-2" d="M232,47.49a5,5,0,0,1-2.13,3.4,2.26,2.26,0,0,1-3.55-1.24,4.73,4.73,0,0,1,2-5.3,2.25,2.25,0,0,1,3.42,1.4A11.2,11.2,0,0,1,232,47.49Z"/><path class="cls-2" d="M224.44,47.46a4.17,4.17,0,0,1-.82,2,2.2,2.2,0,0,1-3.5.09,4.61,4.61,0,0,1-.38-5.37c1.11-1.62,3.1-1.46,4.12.34A4.93,4.93,0,0,1,224.44,47.46Z"/><path class="cls-2" d="M218.86,52.1c-.05.23-.08.48-.15.7a2.16,2.16,0,0,1-3.68,1,4.07,4.07,0,0,1-1-4.32,2.14,2.14,0,0,1,3.58-.77A4,4,0,0,1,218.86,52.1Z"/></g></g></svg>