<svg width="1044" height="209" viewBox="0 0 1044 209" fill="none" xmlns="http://www.w3.org/2000/svg">
<path d="M95.5055 104.546H114.875V166.75H135.625V104.546H156.193V83.7956H135.625V73.375C135.625 67.645 140.27 63 146 63H156.375V42.25H146C128.81 42.25 114.875 56.1851 114.875 73.375V83.7956H95.5055V104.546Z" fill="#455D7A"/>
<path fill-rule="evenodd" clip-rule="evenodd" d="M21.5 0.75H187.5C198.96 0.75 208.25 10.0401 208.25 21.5V187.5C208.25 198.96 198.96 208.25 187.5 208.25H21.5C10.0401 208.25 0.75 198.96 0.75 187.5V21.5C0.75 10.0401 10.0401 0.75 21.5 0.75ZM21.5 21.5V187.5H187.5V21.5H21.5Z" fill="#455D7A"/>
<path fill-rule="evenodd" clip-rule="evenodd" d="M519.5 156.375C490.85 156.375 467.625 133.15 467.625 104.5C467.625 75.8502 490.85 52.625 519.5 52.625C548.15 52.625 571.375 75.8502 571.375 104.5C571.375 133.15 548.15 156.375 519.5 156.375ZM519.5 135.625C536.69 135.625 550.625 121.69 550.625 104.5C550.625 87.3101 536.69 73.375 519.5 73.375C502.31 73.375 488.375 87.3101 488.375 104.5C488.375 121.69 502.31 135.625 519.5 135.625Z" fill="#455D7A"/>
<path d="M581.75 52.625C581.75 58.355 577.105 63 571.375 63C565.645 63 561 58.355 561 52.625C561 46.895 565.645 42.25 571.375 42.25C577.105 42.25 581.75 46.895 581.75 52.625Z" fill="#455D7A"/>
<path fill-rule="evenodd" clip-rule="evenodd" d="M561 0.75H478C443.62 0.75 415.75 28.6203 415.75 63V146C415.75 180.38 443.62 208.25 478 208.25H561C595.38 208.25 623.25 180.38 623.25 146V63C623.25 28.6203 595.38 0.75 561 0.75ZM436.5 63C436.5 40.0802 455.08 21.5 478 21.5H561C583.92 21.5 602.5 40.0802 602.5 63V146C602.5 168.92 583.92 187.5 561 187.5H478C455.08 187.5 436.5 168.92 436.5 146V63Z" fill="#455D7A"/>
<path fill-rule="evenodd" clip-rule="evenodd" d="M1029.12 26.7733L1043.79 28.4875L1037.2 41.7105C1033.98 48.1588 1030.76 54.6072 1027.53 61.0555C1027.15 62.4213 1026.48 63.6186 1025.49 65.1774C1025.07 65.8288 1023.65 67.9007 1023.59 68.0002C1023.21 68.5619 1022.93 69.0048 1022.73 69.3597V94.1408C1022.73 157.553 961.366 197.848 903.412 197.848C891.553 197.848 882.543 197.28 872.226 195.029C855.247 191.324 842.611 183.959 836.829 171.087L830.877 157.835L845.343 156.504C858.431 155.3 869.778 152.807 878.491 149.469C854.569 145.621 841.162 135.114 841.162 115.382V105.007H851.537C853.817 105.007 855.872 104.822 857.71 104.483C839.756 93.7478 830.763 76.5268 830.763 52.6408C830.761 51.6227 830.761 51.6227 830.755 50.5342C830.687 38.4945 831.334 32.0614 834.63 23.8509C836.742 18.5889 839.795 13.7175 843.904 9.25406L851.734 0.75L859.345 9.4491C884.43 38.1167 909.226 55.5088 934.543 57.6125C934.651 31.1596 954.643 11.1408 981.232 11.1408C993.628 11.1408 1004.87 15.8458 1013.71 24.3295C1018.54 25.3233 1023.68 26.1386 1029.12 26.7733ZM1006.18 43.9303L1003 43.2101L1000.8 40.7998C995.489 34.9718 988.823 31.8902 981.232 31.8902C966.054 31.8902 955.293 42.7049 955.293 57.8277C955.293 60.2992 955.229 61.8521 954.921 63.8932C953.692 72.0377 949.124 78.5777 939.73 78.5777C908.625 78.5777 880.564 61.9144 853.2 33.4543C851.79 37.7426 851.458 42.1506 851.504 50.4173C851.51 51.5229 851.51 51.5229 851.513 52.6402C851.513 73.8883 860.121 85.5108 880.503 91.9891L887.735 94.2878V101.877C887.735 111.079 879.017 119.742 866.26 123.622C872.108 128.059 884.067 130.453 903.415 130.453H913.79V140.828C913.79 155.692 896.71 167.331 870.909 173.409C879.323 175.987 890.527 177.098 903.412 177.098C951.286 177.098 1001.98 143.808 1001.98 94.1402V68.2027C1001.98 65.1547 1002.87 62.509 1004.34 59.7582C1004.91 58.6826 1005.54 57.6573 1006.32 56.4878C1006.47 56.2676 1007.01 55.4699 1007.45 54.8321L1008.27 53.1876C1009.6 50.5229 1010.93 47.8582 1012.26 45.1935C1010.19 44.8016 1008.17 44.3806 1006.18 43.9303Z" fill="#455D7A"/>
</svg>
