<svg width="237" height="41" viewBox="0 0 237 41" fill="none" xmlns="http://www.w3.org/2000/svg">
<path d="M19.2495 2.92705C19.5489 2.00574 20.8523 2.00574 21.1516 2.92705L24.5114 13.2673C24.6452 13.6793 25.0292 13.9582 25.4624 13.9582H36.3348C37.3035 13.9582 37.7063 15.1979 36.9226 15.7673L28.1266 22.1579C27.7762 22.4125 27.6295 22.8639 27.7634 23.2759L31.1231 33.6161C31.4225 34.5374 30.368 35.3036 29.5843 34.7342L20.7884 28.3435C20.4379 28.0889 19.9633 28.0889 19.6128 28.3435L10.8169 34.7342C10.0332 35.3036 8.97868 34.5374 9.27803 33.6161L12.6378 23.2759C12.7716 22.8639 12.625 22.4125 12.2745 22.1579L3.47858 15.7673C2.69487 15.1979 3.09765 13.9582 4.06637 13.9582H14.9387C15.3719 13.9582 15.7559 13.6793 15.8898 13.2673L19.2495 2.92705Z" fill="#FDD952"/>
<path d="M117.367 2.92705C117.666 2.00574 118.969 2.00574 119.269 2.92705L122.629 13.2673C122.762 13.6793 123.146 13.9582 123.58 13.9582H134.452C135.421 13.9582 135.823 15.1979 135.04 15.7673L126.244 22.1579C125.893 22.4125 125.747 22.8639 125.881 23.2759L129.24 33.6161C129.54 34.5374 128.485 35.3036 127.701 34.7342L118.906 28.3435C118.555 28.0889 118.08 28.0889 117.73 28.3435L108.934 34.7342C108.15 35.3036 107.096 34.5374 107.395 33.6161L110.755 23.2759C110.889 22.8639 110.742 22.4125 110.392 22.1579L101.596 15.7673C100.812 15.1979 101.215 13.9582 102.184 13.9582H113.056C113.489 13.9582 113.873 13.6793 114.007 13.2673L117.367 2.92705Z" fill="#FDD952"/>
<path d="M68.3081 2.92705C68.6075 2.00574 69.9109 2.00574 70.2102 2.92705L73.57 13.2673C73.7038 13.6793 74.0878 13.9582 74.521 13.9582H85.3934C86.3621 13.9582 86.7649 15.1979 85.9811 15.7673L77.1852 22.1579C76.8347 22.4125 76.6881 22.8639 76.822 23.2759L80.1817 33.6161C80.4811 34.5374 79.4266 35.3036 78.6429 34.7342L69.8469 28.3435C69.4965 28.0889 69.0219 28.0889 68.6714 28.3435L59.8755 34.7342C59.0917 35.3036 58.0373 34.5374 58.3366 33.6161L61.6964 23.2759C61.8302 22.8639 61.6836 22.4125 61.3331 22.1579L52.5372 15.7673C51.7535 15.1979 52.1562 13.9582 53.125 13.9582H63.9973C64.4305 13.9582 64.8145 13.6793 64.9484 13.2673L68.3081 2.92705Z" fill="#FDD952"/>
<path d="M166.425 2.92705C166.724 2.00574 168.028 2.00574 168.327 2.92705L171.687 13.2673C171.821 13.6793 172.205 13.9582 172.638 13.9582H183.51C184.479 13.9582 184.882 15.1979 184.098 15.7673L175.302 22.1579C174.952 22.4125 174.805 22.8639 174.939 23.2759L178.299 33.6161C178.598 34.5374 177.544 35.3036 176.76 34.7342L167.964 28.3435C167.613 28.0889 167.139 28.0889 166.788 28.3435L157.992 34.7342C157.209 35.3036 156.154 34.5374 156.454 33.6161L159.813 23.2759C159.947 22.8639 159.801 22.4125 159.45 22.1579L150.654 15.7673C149.87 15.1979 150.273 13.9582 151.242 13.9582H162.114C162.547 13.9582 162.931 13.6793 163.065 13.2673L166.425 2.92705Z" fill="#FDD952"/>
<path d="M215.484 2.92705C215.783 2.00574 217.086 2.00574 217.386 2.92705L220.745 13.2673C220.879 13.6793 221.263 13.9582 221.697 13.9582H232.569C233.538 13.9582 233.94 15.1979 233.157 15.7673L224.361 22.1579C224.01 22.4125 223.864 22.8639 223.997 23.2759L227.357 33.6161C227.657 34.5374 226.602 35.3036 225.818 34.7342L217.022 28.3435C216.672 28.0889 216.197 28.0889 215.847 28.3435L207.051 34.7342C206.267 35.3036 205.213 34.5374 205.512 33.6161L208.872 23.2759C209.006 22.8639 208.859 22.4125 208.509 22.1579L199.713 15.7673C198.929 15.1979 199.332 13.9582 200.3 13.9582H211.173C211.606 13.9582 211.99 13.6793 212.124 13.2673L215.484 2.92705Z" fill="#FDD952"/>
</svg>
